<svg width="128" height="36" viewBox="0 0 128 36" fill="none" xmlns="http://www.w3.org/2000/svg">
<path fill-rule="evenodd" clip-rule="evenodd" d="M124.282 20.243C124.201 19.7107 123.981 19.2047 123.59 18.713H128L122.43 25.8188C122.508 25.6643 122.584 25.5121 122.659 25.3622C123.269 24.1491 123.804 23.0842 124.091 22.1233C124.289 21.4618 124.373 20.8398 124.282 20.243ZM123.59 18.4929H128L122.43 11.387C122.508 11.5416 122.584 11.694 122.659 11.844L122.659 11.844C123.269 13.057 123.804 14.1218 124.091 15.0826C124.289 15.7441 124.373 16.3661 124.282 16.9629C124.201 17.4952 123.981 18.0012 123.59 18.4929Z" fill="#FF0000"/>
<path fill-rule="evenodd" clip-rule="evenodd" d="M28.1755 7.01297C29.1371 7.01297 29.9558 6.67532 30.6317 6.00001C31.3334 5.29874 31.6842 4.46758 31.6842 3.50657C31.6842 2.54538 31.3334 1.72722 30.6317 1.05191C29.9558 0.350634 29.1371 0 28.1755 0C27.2139 0 26.3823 0.350634 25.6806 1.05191C25.0049 1.72722 24.667 2.54538 24.667 3.50657C24.667 4.46758 25.0049 5.29874 25.6806 6.00001C26.3823 6.67532 27.2139 7.01297 28.1755 7.01297ZM25.2518 28.2079H31.0995V19.2384H25.2518V28.2079ZM25.2518 17.9178V8.72721H31.0995V17.9178L25.2518 17.9178ZM38.484 19.2384L34.7939 24.3117V28.2078H50.3878V22.7533H42.6298L45.1864 19.2384H38.484ZM46.147 17.9178H39.4446L42.162 14.1817H35.1838V8.72714H49.9979V12.6233L46.147 17.9178ZM53.8816 19.2384V28.2079H59.7294V19.2384H53.8816ZM59.7294 17.9178H53.8816V8.72724H59.7294V17.9178ZM64.0088 19.2384V36H69.8565V26.3765C71.208 27.9611 73.1442 28.7533 75.6651 28.7533C78.2382 28.7533 80.4343 27.7663 82.2537 25.7921C83.9099 23.9951 84.8122 21.8105 84.9606 19.2384H79.0902C78.9577 20.3364 78.5308 21.2353 77.8094 21.9351C76.9517 22.7922 75.847 23.2208 74.4956 23.2208C73.1441 23.2208 72.0266 22.7922 71.143 21.9351C70.4428 21.2353 70.0284 20.3364 69.8999 19.2384H64.0088ZM69.8781 17.9178H64.0088V8.72714H69.8565V10.5584C71.208 8.97389 73.1442 8.1817 75.6651 8.1817C78.2122 8.1817 80.4083 9.18185 82.2537 11.1818C83.9561 13.029 84.862 15.2745 84.9713 17.9178H79.1126C79.0131 16.7188 78.5787 15.7462 77.8094 14.9999C76.9517 14.1427 75.847 13.7142 74.4956 13.7142C73.1441 13.7142 72.0266 14.1427 71.143 14.9999C70.3963 15.7462 69.9747 16.7188 69.8781 17.9178ZM88.2988 19.2384V28.2079H94.1466V19.4025C94.1466 19.3473 94.1472 19.2926 94.1484 19.2384H88.2988ZM94.3215 17.9178L88.2988 17.9178V8.72716H94.1466V12.1948C94.5104 10.974 95.2251 10.026 96.2907 9.35069C97.3822 8.67521 98.6167 8.33755 99.9943 8.33755V14.9611C98.5387 14.7272 97.2003 14.9741 95.9788 15.7014C95.1348 16.1859 94.5823 16.9247 94.3215 17.9178ZM101.206 19.2384C101.371 21.7884 102.364 23.9729 104.184 25.7921C106.159 27.7663 108.602 28.7533 111.512 28.7533C114.423 28.7533 116.867 27.7663 118.841 25.7921C120.662 23.9729 121.655 21.7884 121.82 19.2384H115.947C115.81 20.2442 115.398 21.0912 114.71 21.7793C113.853 22.6364 112.786 23.0649 111.512 23.0649C110.239 23.0649 109.173 22.6364 108.315 21.7793C107.627 21.0912 107.215 20.2442 107.079 19.2384H101.206ZM107.054 17.9178H101.194C101.316 15.2977 102.312 13.0522 104.184 11.1818C106.184 9.18185 108.628 8.1817 111.512 8.1817C114.398 8.1817 116.841 9.18185 118.841 11.1818C120.713 13.0522 121.71 15.2977 121.832 17.9178H115.972C115.869 16.8143 115.448 15.8937 114.71 15.1559C113.853 14.2986 112.786 13.87 111.512 13.87C110.239 13.87 109.173 14.2986 108.315 15.1559C107.578 15.8937 107.157 16.8143 107.054 17.9178ZM20.9622 17.9178H15.0929C14.9961 16.7192 14.5745 15.7469 13.828 15.0007C12.9704 14.1436 11.8527 13.715 10.4753 13.715C9.09783 13.715 7.9803 14.1436 7.12266 15.0007C6.37603 15.7469 5.95439 16.7192 5.85763 17.9178H-0.000427246C0.109054 15.2748 1.01507 13.0297 2.71732 11.1826C4.56255 9.1827 6.75881 8.18255 9.30574 8.18255C11.8267 8.18255 13.7631 8.97474 15.1145 10.5593V0.935818L20.9622 0.935818V17.9178ZM0.0101597 19.2384C0.158466 21.8109 1.06095 23.9957 2.71732 25.793C4.53656 27.7671 6.73282 28.7541 9.30574 28.7541C11.8267 28.7541 13.7631 27.9619 15.1145 26.3774V28.2087H20.9622V19.2384H15.0712C14.9428 20.3368 14.5284 21.236 13.828 21.9359C12.9704 22.7931 11.8527 23.2216 10.4753 23.2216C9.09783 23.2216 7.9803 22.7931 7.12266 21.9359C6.42214 21.236 6.00772 20.3368 5.87928 19.2384H0.0101597ZM56.8056 7.013C57.7672 7.013 58.5858 6.67535 59.2616 6.00005C59.9633 5.29877 60.3143 4.46761 60.3143 3.5066C60.3143 2.54541 59.9633 1.72725 59.2616 1.05194C58.5858 0.350665 57.7672 3.05176e-05 56.8056 3.05176e-05C55.844 3.05176e-05 55.0123 0.350665 54.3106 1.05194C53.6347 1.72725 53.2969 2.54541 53.2969 3.5066C53.2969 4.46761 53.6347 5.29877 54.3106 6.00005C55.0123 6.67535 55.844 7.013 56.8056 7.013Z" fill="black"/>
</svg>
